<svg id="visual" viewBox="0 0 1800 1200" width="auto" height="auto" xmlns="http://www.w3.org/2000/svg" xmlns:xlink="http://www.w3.org/1999/xlink" version="1.1"><path d="M0 145L164 145L164 109L327 109L327 121L491 121L491 121L655 121L655 205L818 205L818 241L982 241L982 109L1145 109L1145 157L1309 157L1309 133L1473 133L1473 301L1636 301L1636 193L1800 193L1800 181L1800 0L1800 0L1636 0L1636 0L1473 0L1473 0L1309 0L1309 0L1145 0L1145 0L982 0L982 0L818 0L818 0L655 0L655 0L491 0L491 0L327 0L327 0L164 0L164 0L0 0Z" fill="#e3f2fd"></path><path d="M0 325L164 325L164 229L327 229L327 241L491 241L491 229L655 229L655 409L818 409L818 385L982 385L982 241L1145 241L1145 241L1309 241L1309 277L1473 277L1473 505L1636 505L1636 265L1800 265L1800 373L1800 179L1800 191L1636 191L1636 299L1473 299L1473 131L1309 131L1309 155L1145 155L1145 107L982 107L982 239L818 239L818 203L655 203L655 119L491 119L491 119L327 119L327 107L164 107L164 143L0 143Z" fill="#d9edfc"></path><path d="M0 565L164 565L164 445L327 445L327 397L491 397L491 445L655 445L655 505L818 505L818 469L982 469L982 481L1145 481L1145 373L1309 373L1309 457L1473 457L1473 649L1636 649L1636 349L1800 349L1800 589L1800 371L1800 263L1636 263L1636 503L1473 503L1473 275L1309 275L1309 239L1145 239L1145 239L982 239L982 383L818 383L818 407L655 407L655 227L491 227L491 239L327 239L327 227L164 227L164 323L0 323Z" fill="#cfe8fc"></path><path d="M0 961L164 961L164 685L327 685L327 745L491 745L491 745L655 745L655 901L818 901L818 769L982 769L982 709L1145 709L1145 613L1309 613L1309 997L1473 997L1473 793L1636 793L1636 709L1800 709L1800 925L1800 587L1800 347L1636 347L1636 647L1473 647L1473 455L1309 455L1309 371L1145 371L1145 479L982 479L982 467L818 467L818 503L655 503L655 443L491 443L491 395L327 395L327 443L164 443L164 563L0 563Z" fill="#c5e3fb"></path><path d="M0 1201L164 1201L164 1201L327 1201L327 1201L491 1201L491 1201L655 1201L655 1201L818 1201L818 1201L982 1201L982 1201L1145 1201L1145 1201L1309 1201L1309 1201L1473 1201L1473 1201L1636 1201L1636 1201L1800 1201L1800 1201L1800 923L1800 707L1636 707L1636 791L1473 791L1473 995L1309 995L1309 611L1145 611L1145 707L982 707L982 767L818 767L818 899L655 899L655 743L491 743L491 743L327 743L327 683L164 683L164 959L0 959Z" fill="#bbdefb"></path></svg>